PathFileType	4	(X/Y/Z)	C:\Users\Basilio\Documents\Thesis Gigler\squatting_fais\c3dfiles\040\SLS_pre_back4\markers_experimental.trc
DataRate	CameraRate	NumFrames	NumMarkers	Units	OrigDataRate	OrigDataStartFrame	OrigNumFrames
200.000000	200.000000	4	63	mm	200.000000	312	1249
Frame#	Time	FHD			LBHD			RBHD			C7			T10			CLAV			LSHO			LUUPA			LMUPA			LDUPA			LLEP			LMEP			LRAD			LUL			LRFIN			RSHO			RUPA1			RMUPA			RDUPA			RLEP			RMEP			RRAD			RUL			RUFIN			LASI			RASI			USACR			LSACR			RSACR			LTHI1			LTHI2			LTHI3			LTHI4			LLFC			LMFC			LTIB1			LTIB2			LTIB3			LTIB4			LLMAL			LMMAL			LHEE			LMT1			LMT2			LMT5			RTHI			RTHI2			RTHI3			RTHI4			RLFC			RMFC			RTIB1			RTIB2			RTIB3			RTIB4			RLMAL			RMMAL			RHEE			RMT1			RMT2			RMT5			*61			*62			
		X1	Y1	Z1	X2	Y2	Z2	X3	Y3	Z3	X4	Y4	Z4	X5	Y5	Z5	X6	Y6	Z6	X7	Y7	Z7	X8	Y8	Z8	X9	Y9	Z9	X10	Y10	Z10	X11	Y11	Z11	X12	Y12	Z12	X13	Y13	Z13	X14	Y14	Z14	X15	Y15	Z15	X16	Y16	Z16	X17	Y17	Z17	X18	Y18	Z18	X19	Y19	Z19	X20	Y20	Z20	X21	Y21	Z21	X22	Y22	Z22	X23	Y23	Z23	X24	Y24	Z24	X25	Y25	Z25	X26	Y26	Z26	X27	Y27	Z27	X28	Y28	Z28	X29	Y29	Z29	X30	Y30	Z30	X31	Y31	Z31	X32	Y32	Z32	X33	Y33	Z33	X34	Y34	Z34	X35	Y35	Z35	X36	Y36	Z36	X37	Y37	Z37	X38	Y38	Z38	X39	Y39	Z39	X40	Y40	Z40	X41	Y41	Z41	X42	Y42	Z42	X43	Y43	Z43	X44	Y44	Z44	X45	Y45	Z45	X46	Y46	Z46	X47	Y47	Z47	X48	Y48	Z48	X49	Y49	Z49	X50	Y50	Z50	X51	Y51	Z51	X52	Y52	Z52	X53	Y53	Z53	X54	Y54	Z54	X55	Y55	Z55	X56	Y56	Z56	X57	Y57	Z57	X58	Y58	Z58	X59	Y59	Z59	X60	Y60	Z60	X61	Y61	Z61	X62	Y62	Z62	X63	Y63	Z63	

313	1.56	-127.5203933715821	1740.935913085938	-1228.799926757813	-254.4823608398438	1697.289306640625	-1270.044067382813	-311.2907714843751	1667.729614257813	-1138.026611328125	-330.9950561523438	1554.43505859375	-1175.481689453125	-426.9255676269532	1255.897827148438	-1132.831420898438	-215.8509521484376	1465.652221679688	-1177.128295898438	-268.7310180664063	1528.623779296875	-1318.61572265625	-126.6669464111328	1446.986328125	-1401.0927734375	-90.97377777099611	1457.940185546875	-1367.828247070313	-60.96370697021486	1423.542602539063	-1407.973388671875	-9.268330574035646	1386.666381835938	-1410.072387695313	-28.19233512878419	1333.821655273438	-1374.127075195313	252.9286804199219	1363.391235351563	-1277.257934570313	265.4350891113282	1366.46044921875	-1353.451416015625	345.4963378906251	1365.934936523438	-1271.505981445313	-234.2610321044922	1525.507080078125	-1036.893188476563	-94.17587280273439	1422.818481445313	-966.9809570312502	-61.64283370971681	1438.02001953125	-999.8413085937502	-31.31986236572266	1392.860717773438	-973.5838012695315	25.88607025146485	1370.2578125	-988.0461425781252	-0.9097787737846377	1314.956176757813	-1031.441284179688	269.2382507324219	1353.393676757813	-1160.962768554688	285.1673889160157	1337.514770507813	-1085.642578125	362.7737121582032	1350.557495117188	-1170.644409179688	-292.1789855957032	1050.847412109375	-1238.061645507813	-285.4960021972657	1042.853881835938	-1011.259704589844	-463.474822998047	1125.442138671875	-1119.757934570313	-477.3578491210939	1096.489379882813	-1148.996459960938	-473.503387451172	1094.364868164063	-1092.041381835938	-369.5314636230469	798.331726074219	-1298.477783203125	-315.9822692871094	731.9762573242189	-1296.718627929688	-270.4127197265626	744.7783813476564	-1295.794921875	-326.3844299316407	676.1538085937501	-1279.899291992188	-288.8347778320313	551.3951416015626	-1257.66455078125	-293.2155151367188	541.4066162109376	-1127.658813476563	-267.9010925292969	328.7699279785157	-1201.477172851563	-343.6238403320313	295.4301452636719	-1234.676635742188	-301.5461425781251	285.5954284667969	-1222.75439453125	-298.5582580566407	209.6898040771485	-1181.353515625	-372.9642639160157	125.8007049560547	-1183.3544921875	-334.4982604980469	146.2950897216797	-1104.98876953125	-430.3796997070314	100.1142883300782	-1127.436157226563	-218.8535461425782	61.2925148010254	-1107.289916992188	-219.3374328613282	52.85029220581056	-1154.15625	-270.8033752441407	36.17781066894532	-1201.114013671875	-353.1505737304688	781.283874511719	-948.5950927734377	-322.5327758789063	722.5381469726564	-950.996032714844	-290.2568054199219	722.1711425781251	-956.5366210937502	-356.7786254882813	646.7929687500001	-958.6004638671877	-367.7061157226563	538.8701171875001	-969.7562255859377	-375.1447143554688	532.0646972656251	-1097.285522460938	-510.0311584472657	424.1789855957032	-991.3379516601565	-604.4704589843751	471.0856323242189	-967.1064453125002	-594.4466552734376	426.1371154785157	-975.5080566406252	-635.2824096679689	396.173553466797	-1007.200134277344	-762.3823242187501	410.4090270996095	-986.9263916015627	-741.1596679687501	398.5412902832032	-1073.791381835938	-815.769470214844	463.5965270996095	-1046.130249023438	-772.8220825195315	247.5579833984376	-1066.229125976563	-777.7989501953127	245.9489440917969	-1026.409423828125	-819.1203613281252	276.5228576660157	-978.6326904296877	nan	nan	nan	nan	nan	nan	
314	1.565	-127.0022430419922	1740.375366210938	-1228.770141601563	-254.1135253906251	1696.513305664063	-1269.89453125	-310.8319091796876	1667.024658203125	-1137.816650390625	-330.5737915039063	1553.954345703125	-1175.1845703125	-426.7877502441407	1255.55810546875	-1132.734375	-215.5128326416016	1465.070556640625	-1177.0205078125	-268.2309265136719	1528.072998046875	-1318.540161132813	-126.2549896240235	1446.53271484375	-1401.062377929688	-90.47769927978517	1457.545288085938	-1367.968139648438	-60.55702972412111	1423.010375976563	-1408.046020507813	-8.930126190185549	1386.17724609375	-1410.22802734375	-27.81473350524903	1333.370727539063	-1374.277465820313	253.5671539306641	1362.297241210938	-1277.580932617188	265.5540771484376	1365.76806640625	-1353.58447265625	346.3757629394532	1364.836669921875	-1271.84375	-233.6885833740235	1524.879760742188	-1036.907104492188	-93.3803176879883	1422.368286132813	-967.0603637695315	-61.23455810546876	1437.567016601563	-999.885925292969	-30.53910446166993	1391.997802734375	-973.6231079101565	26.77923202514649	1369.739990234375	-988.0812988281252	-0.3249279260635377	1313.98876953125	-1031.707641601563	270.2044982910157	1352.096801757813	-1161.172119140625	285.8535766601563	1336.861206054688	-1086.051391601563	363.1718139648438	1350.088745117188	-1171.050415039063	-292.3854370117188	1050.173461914063	-1237.887817382813	-285.8793640136719	1042.099365234375	-1011.081970214844	-463.9574584960939	1124.56396484375	-1119.69140625	-477.4390258789064	1096.082153320313	-1149.005981445313	-473.6733398437501	1094.038452148438	-1091.954345703125	-369.1832580566407	797.7852172851565	-1298.5068359375	-315.3738708496094	731.5708618164064	-1296.773681640625	-269.8626098632813	744.5709838867189	-1295.710693359375	-325.7445983886719	675.8272705078126	-1280.053588867188	-287.7161254882813	550.8304443359376	-1257.69287109375	-291.6263732910157	541.3194580078126	-1127.85791015625	-267.3646545410157	328.6977233886719	-1201.397705078125	-343.0480346679688	295.8536376953126	-1234.580688476563	-301.0025634765626	285.5031738281251	-1222.692504882813	-297.9913635253907	209.3027496337891	-1181.112426757813	-372.8442687988282	125.8194732666016	-1183.25244140625	-334.5023803710938	146.2315979003907	-1104.8837890625	-430.3817749023439	100.0843505859375	-1127.336059570313	-219.3841857910157	60.82226562500001	-1106.5888671875	-219.3998413085938	52.79273223876955	-1154.04345703125	-270.8091125488282	36.24808883666993	-1201.10302734375	-354.1733703613282	780.5944824218752	-948.572448730469	-323.8741455078126	721.3767700195314	-952.2651367187502	-291.6214294433594	720.6605834960939	-957.3562011718752	-357.4580078125001	646.3659057617189	-958.5303955078127	-368.9872131347657	538.1721191406251	-969.9252929687502	-376.0776062011719	531.6887817382814	-1097.054443359375	-510.7704467773439	423.7447204589845	-991.269470214844	-605.5559082031251	470.8711853027345	-966.862487792969	-595.7572631835939	425.8158569335939	-974.9920654296877	-636.5358886718751	395.9349670410157	-1006.760009765625	-763.0545043945314	410.2127075195314	-986.9052734375002	-742.1134033203126	398.6510620117189	-1073.639404296875	-816.5515136718752	463.5961914062501	-1045.909790039063	-774.1113891601565	247.5103759765626	-1066.166870117188	-779.1668701171877	246.0399627685547	-1026.366455078125	-820.6273193359377	276.4775085449219	-978.5541992187502	nan	nan	nan	nan	nan	nan	
315	1.57	-126.5630874633789	1739.818237304688	-1228.810913085938	-253.6098175048829	1695.814697265625	-1269.716796875	-310.1876220703126	1666.323486328125	-1137.500366210938	-330.0649414062501	1553.4423828125	-1174.969604492188	-426.5842895507814	1255.155517578125	-1132.565673828125	-214.8958282470704	1464.317626953125	-1176.893798828125	-267.7826538085938	1527.513671875	-1318.38232421875	-125.885498046875	1446.012939453125	-1401.075317382813	-90.17097473144533	1457.051391601563	-1367.932861328125	-60.26209640502931	1422.415283203125	-1408.167358398438	-8.574398040771486	1385.626708984375	-1410.378540039063	-27.4258098602295	1332.766845703125	-1374.486450195313	253.2866821289063	1361.737548828125	-1278.1923828125	265.7848510742188	1364.98876953125	-1353.79296875	346.6282653808594	1363.532836914063	-1272.800415039063	-233.101058959961	1524.19384765625	-1036.747314453125	-92.66458129882814	1421.75927734375	-966.9687500000002	-60.68810653686525	1436.208984375	-999.8670043945315	-30.09107017517091	1391.409423828125	-973.619079589844	27.78288459777833	1368.323608398438	-988.0657348632815	0.1411949694156647	1313.475341796875	-1031.698120117188	270.4645385742188	1352.208374023438	-1161.572143554688	286.6928100585938	1336.262573242188	-1086.474609375	363.5438842773438	1349.272827148438	-1171.424072265625	-292.5899658203126	1049.58642578125	-1237.761840820313	-285.9566040039063	1041.59375	-1011.0087890625	-464.0309143066407	1124.257202148438	-1119.699462890625	-477.5854492187501	1095.669311523438	-1148.955810546875	-473.9385986328126	1093.74365234375	-1091.892333984375	-368.8823547363282	797.3637695312502	-1298.475952148438	-314.8430480957032	731.2373046875001	-1296.846923828125	-269.4610595703126	744.4083251953126	-1295.775390625	-324.9490966796876	675.3968505859376	-1280.077758789063	-286.7783203125001	550.8764038085939	-1257.57958984375	-290.9374694824219	540.9599609375001	-1128.007690429688	-266.9445190429688	328.7468566894532	-1201.266357421875	-342.5884399414063	295.8390808105469	-1234.390258789063	-300.1781616210938	285.1418151855469	-1222.288818359375	-297.6104736328126	208.8205871582032	-1180.923461914063	-372.5906982421876	125.7491683959961	-1183.190551757813	-334.5256958007813	146.1905975341797	-1104.755615234375	-430.2977294921876	100.2248916625977	-1127.290771484375	-218.9484252929688	60.17144012451173	-1106.708618164063	-218.2865142822266	51.93821716308595	-1153.732543945313	-270.7942504882813	36.26286315917969	-1201.114990234375	-354.5923156738282	780.244812011719	-948.4305419921877	-324.4462280273438	721.2941894531251	-951.3337402343752	-291.7340698242188	720.8117065429689	-956.785827636719	-358.3263854980469	646.0842285156251	-958.4942016601565	-369.2767028808594	537.9450073242189	-969.3695068359377	-377.0360412597657	531.1872558593751	-1096.75537109375	-511.4875488281251	423.3873291015626	-991.1555175781252	-606.6373901367189	470.9011230468751	-966.4741821289065	-596.9900512695314	425.3587646484376	-974.8338012695315	-636.8569946289064	395.0613098144532	-1007.268188476563	-763.9788818359376	410.1179809570314	-986.708435058594	-743.3384399414064	398.801971435547	-1073.500366210938	-817.4119873046877	463.9470214843751	-1045.543579101563	-775.6058349609377	247.9428405761719	-1066.282958984375	-780.5051269531252	245.9765777587891	-1026.201904296875	-821.8369750976565	276.7889099121094	-978.492126464844	nan	nan	nan	nan	nan	nan	
316	1.575	-126.0736694335938	1739.254516601563	-1228.873413085938	-253.1332244873047	1695.1494140625	-1269.625366210938	-309.5063171386719	1665.49853515625	-1137.233154296875	-329.5326843261719	1552.803466796875	-1174.833862304688	-427.004852294922	1254.556396484375	-1132.671264648438	-214.3744659423829	1463.581420898438	-1176.8134765625	-267.2734680175782	1526.920043945313	-1318.088989257813	-125.4912567138672	1445.575805664063	-1401.148803710938	-89.76076507568361	1456.327514648438	-1367.983276367188	-59.94994354248048	1421.976806640625	-1408.241088867188	-8.252528190612795	1385.003295898438	-1410.488037109375	-27.07554817199708	1332.212890625	-1374.659790039063	253.7352447509766	1361.0595703125	-1278.533569335938	265.5923156738282	1364.472045898438	-1354.168823242188	346.8320617675782	1362.86474609375	-1273.109252929688	-232.4549560546876	1523.377685546875	-1036.602905273438	-92.09133148193361	1420.725830078125	-966.8660888671877	-59.91305923461915	1435.962646484375	-999.5374145507815	-29.365873336792	1390.554809570313	-973.6166992187502	28.24550437927247	1368.260375976563	-988.4394531250002	0.6124789118766786	1312.801635742188	-1031.607543945313	270.4522705078126	1350.538818359375	-1161.780517578125	286.6456604003907	1335.611328125	-1087.182373046875	363.9459838867188	1348.9345703125	-1172.182006835938	-292.6694335937501	1048.996704101563	-1237.7119140625	-286.1234130859376	1041.199951171875	-1011.065063476563	-463.9981689453126	1124.150756835938	-1119.565063476563	-478.7539978027345	1096.148315429688	-1149.062744140625	-475.7121582031251	1094.40087890625	-1092.088256835938	-368.4815979003907	796.895935058594	-1298.466186523438	-314.3318786621094	730.8366088867189	-1296.940795898438	-268.9296875000001	744.1283569335939	-1295.76220703125	-324.2749938964844	675.0492553710939	-1280.114501953125	-285.4228515625001	550.4886474609376	-1257.556396484375	-290.1571655273438	540.7424316406251	-1128.181884765625	-265.6320495605469	328.4787292480469	-1201.291259765625	-342.3942565917969	295.9761047363282	-1234.3251953125	-299.4985046386719	284.3596191406251	-1222.038330078125	-297.3244323730469	208.5994262695313	-1180.76025390625	-372.5949401855469	125.9799957275391	-1183.077392578125	-334.4580993652344	146.1794586181641	-1104.633178710938	-430.3255004882814	100.1699905395508	-1127.199951171875	-218.9023895263672	60.20010375976564	-1107.005859375	-218.4962158203126	51.84664916992189	-1153.597412109375	-270.7925415039063	36.24678802490235	-1201.131591796875	-355.1809387207032	779.762634277344	-948.3001098632815	-324.8538513183594	720.3895874023439	-951.3024902343752	-292.2161865234376	720.3328247070314	-956.8400878906252	-359.0308227539063	645.3114624023439	-958.3870849609377	-369.9790344238282	537.3071899414064	-969.2580566406252	-378.9956665039063	531.5421142578126	-1096.7607421875	-512.7474975585939	423.2402954101564	-990.8176269531252	-607.3005981445314	470.5594482421876	-966.3072509765627	-597.4140625000001	425.0086975097657	-974.964050292969	-637.8943481445314	395.418182373047	-1006.6650390625	-765.4409790039064	410.3672180175782	-986.3046875000002	-744.2326049804689	398.818817138672	-1073.180786132813	-818.3664550781252	464.1123657226564	-1045.225341796875	-776.857849121094	247.8090362548829	-1066.401245117188	-781.7222900390627	245.9939575195313	-1026.0673828125	-823.1301879882815	277.1305236816407	-978.541442871094	nan	nan	nan	nan	nan	nan	
